<?xml version="1.0" encoding="UTF-8" standalone="no"?>
<!-- Created with Inkscape (http://www.inkscape.org/) -->

<svg
   width="1861mm"
   height="512mm"
   viewBox="0 0 1861 512"
   version="1.1"
   id="svg9441"
   inkscape:version="1.2.1 (9c6d41e410, 2022-07-14)"
   sodipodi:docname="cyberptm_logo.svg"
   xmlns:inkscape="http://www.inkscape.org/namespaces/inkscape"
   xmlns:sodipodi="http://sodipodi.sourceforge.net/DTD/sodipodi-0.dtd"
   xmlns="http://www.w3.org/2000/svg"
   xmlns:svg="http://www.w3.org/2000/svg">
  <sodipodi:namedview
     id="namedview9443"
     pagecolor="#ffffff"
     bordercolor="#000000"
     borderopacity="0.25"
     inkscape:showpageshadow="2"
     inkscape:pageopacity="0.0"
     inkscape:pagecheckerboard="0"
     inkscape:deskcolor="#d1d1d1"
     inkscape:document-units="mm"
     showgrid="false"
     inkscape:zoom="0.065670014"
     inkscape:cx="7925.9919"
     inkscape:cy="4629.2056"
     inkscape:window-width="1920"
     inkscape:window-height="1009"
     inkscape:window-x="-8"
     inkscape:window-y="-8"
     inkscape:window-maximized="1"
     inkscape:current-layer="layer1" />
  <defs
     id="defs9438" />
  <g
     inkscape:label="Layer 1"
     inkscape:groupmode="layer"
     id="layer1">
    <circle
       style="opacity:0.994535;fill:#ffffff;fill-opacity:1;stroke:#000000;stroke-width:20.0384;stroke-dasharray:none;stroke-opacity:1"
       id="path5636"
       cx="258.79263"
       cy="257.58801"
       r="196.60963" />
    <path
       id="path5636-4"
       style="opacity:0.994535;stroke:#000000;stroke-width:16.7817"
       inkscape:transform-center-x="-32.613927"
       inkscape:transform-center-y="-30.525973"
       d="m 256.49721,94.305229 c -40.82294,0.33397 -81.59212,15.730511 -113.23346,46.373611 -1.03532,1.59639 21.56101,25.90166 52.88006,58.33384 l 6.29942,-29.44311 H 382.6401 l -25.66355,120.70645 -32.44621,39.09096 c 27.51409,27.61329 47.82369,47.87514 47.82369,47.87514 65.32426,-63.26332 66.9908,-167.51154 3.72783,-232.83547 C 343.46197,110.72372 299.95387,93.965574 256.49721,94.305229 Z M 324.53034,329.36698 C 311.81462,316.60519 298.1758,302.91326 283.10991,287.70476 l -104.0001,-0.34399 -46.65011,60.05984 176.10668,1.17225 z m -41.42043,-41.66222 73.86664,0.23379 -74.09107,-0.48427 c 0.0667,0.0667 0.13359,0.16698 0.23378,0.23379 z m -0.23378,-0.23377 c -29.38769,-29.66722 -60.9659,-61.7581 -86.74167,-88.45028 l -18.77734,87.75995 z" />
    <path
       id="rect4226-2"
       style="fill:#ffffff;fill-opacity:1;fill-rule:evenodd;stroke:#000000;stroke-width:16.6987;stroke-dasharray:none;stroke-opacity:1"
       d="m 208.45141,174.21547 c -2.37789,0 -4.66594,1.87694 -5.12583,4.21141 L 182.73609,282.9099 c -0.46087,2.33448 1.08876,4.21107 3.46899,4.21107 h 165.16438 c 2.3779,0 4.66629,-1.87692 5.12584,-4.21107 l 20.57244,-104.48302 c 0.46089,-2.33447 -1.08875,-4.21141 -3.46899,-4.21141 z m -22.91928,113.23347 c -1.54296,0 -3.58855,0.93179 -4.5908,2.10737 l -44.87238,52.51771 c -1.00192,1.17224 -0.56107,2.12408 0.98522,2.12408 h 167.64981 c 1.54296,0 3.60558,-0.94849 4.60784,-2.12408 l 44.85501,-52.51771 c 1.00192,-1.17225 0.57777,-2.10737 -0.96519,-2.10737 z" />
    <g
       aria-label="Cyberphantom"
       id="text290"
       style="font-weight:bold;font-size:180.622px;font-family:Jost;-inkscape-font-specification:'Jost Bold';stroke:#ffffff;stroke-width:0">
      <path
         d="m 603.9926,245.93211 q 0,-11.74043 5.23804,-20.04904 5.23803,-8.30861 13.72727,-12.64354 8.66985,-4.33493 18.96531,-4.33493 9.0311,0 15.89473,2.34809 6.86364,2.16746 12.2823,6.14115 5.41866,3.79306 9.57296,8.12799 v -32.87321 q -7.58612,-5.96052 -16.61722,-9.39234 -9.0311,-3.43182 -22.93899,-3.43182 -15.17225,0 -27.99641,4.69617 -12.82416,4.69618 -22.03588,13.54665 -9.21173,8.85048 -14.26914,20.95216 -5.05742,12.10167 -5.05742,26.91267 0,14.81101 5.05742,26.91268 5.05741,12.10167 14.26914,20.95215 9.21172,8.85048 22.03588,13.54665 12.82416,4.69617 27.99641,4.69617 13.90789,0 22.93899,-3.43182 9.0311,-3.43181 16.61722,-9.39234 v -32.8732 q -4.1543,4.33493 -9.57296,8.12799 -5.41866,3.79306 -12.2823,6.14115 -6.86363,2.34808 -15.89473,2.34808 -10.29546,0 -18.96531,-4.33493 -8.48924,-4.33492 -13.72727,-12.64354 -5.23804,-8.48923 -5.23804,-20.04904 z"
         id="path4742" />
      <path
         d="m 786.96272,226.06369 h -27.99641 l -26.55143,66.4689 14.08851,0.18062 -26.91267,-66.64952 h -29.98326 l 35.94378,76.40311 -20.22966,46.41985 h 27.45454 z"
         id="path4744" />
      <path
         d="m 823.08709,168.26466 h -27.27392 v 140.88515 h 27.27392 z m 67.91387,99.34209 q 0,-14.08851 -5.7799,-23.66148 -5.59928,-9.57296 -14.63038,-14.63038 -8.85048,-5.05742 -19.14593,-5.05742 -10.29546,0 -18.42345,5.23804 -8.12799,5.23804 -12.82416,14.99163 -4.69617,9.57296 -4.69617,23.11961 0,13.36603 4.69617,23.11962 4.69617,9.75359 12.82416,14.99162 8.12799,5.23804 18.42345,5.23804 10.29545,0 19.14593,-5.05742 9.0311,-5.05741 14.63038,-14.63038 5.7799,-9.75358 5.7799,-23.66148 z m -28.71889,0 q 0,6.50239 -2.70933,11.37919 -2.70933,4.69617 -7.22488,7.4055 -4.51555,2.52871 -9.93421,2.52871 -4.69617,0 -9.21172,-2.52871 -4.33493,-2.52871 -7.22488,-7.22488 -2.88996,-4.87679 -2.88996,-11.55981 0,-6.68301 2.88996,-11.37918 2.88995,-4.8768 7.22488,-7.40551 4.51555,-2.5287 9.21172,-2.5287 5.41866,0 9.93421,2.70933 4.51555,2.5287 7.22488,7.4055 2.70933,4.69617 2.70933,11.19856 z"
         id="path4746" />
      <path
         d="m 949.70322,310.95603 q 15.89474,0 26.91268,-6.14115 11.19856,-6.14114 17.70095,-18.42344 l -24.38397,-5.96053 q -3.07057,5.41866 -8.30861,8.12799 -5.05741,2.70933 -12.28229,2.70933 -6.32177,0 -10.6567,-2.70933 -4.33493,-2.88995 -6.50239,-8.30861 -2.16747,-5.41866 -2.16747,-13.00478 0.18062,-8.30861 2.16747,-13.72727 2.16746,-5.59929 6.32177,-8.30862 4.1543,-2.70933 10.29545,-2.70933 4.87679,0 8.48923,2.16747 3.61244,2.16746 5.59929,6.14115 1.98684,3.97368 1.98684,9.39234 0,1.26435 -0.72249,3.2512 -0.54187,1.80622 -1.44498,3.07057 l 6.50239,-8.30861 h -51.29664 v 15.17225 h 75.86124 q 0.36124,-1.26436 0.36124,-3.07058 0,-1.98684 0,-3.97368 0,-13.36603 -5.23804,-22.75837 -5.23804,-9.39235 -15.17225,-14.26914 -9.9342,-5.05742 -24.38396,-5.05742 -14.44976,0 -25.10646,5.23804 -10.47608,5.23804 -16.07536,14.99163 -5.59928,9.75358 -5.59928,23.11961 0,13.18541 5.7799,22.939 5.77991,9.75358 16.25598,15.17224 10.6567,5.23804 25.10646,5.23804 z"
         id="path4748" />
      <path
         d="m 1037.8467,226.06369 h -26.9126 v 83.08612 h 26.9126 z m 24.0228,28.17703 11.7404,-23.30023 q -2.1675,-3.2512 -6.3218,-5.05742 -4.1543,-1.80622 -8.6698,-1.80622 -6.8637,0 -13.1854,4.51555 -6.3218,4.51555 -10.2955,12.2823 -3.793,7.76674 -3.793,17.70095 l 6.5023,9.57297 q 0,-5.96053 1.6256,-10.11483 1.6256,-4.15431 4.6962,-6.32177 3.0706,-2.16747 7.0443,-2.16747 3.6124,0 5.9605,1.26436 2.5287,1.26435 4.6962,3.43181 z"
         id="path4750" />
      <path
         d="M 1112.2629,348.88665 V 226.06369 h -27.2739 v 122.82296 z m 67.9138,-81.2799 q 0,-14.63038 -5.7799,-24.38397 -5.5992,-9.93421 -14.6303,-14.99162 -8.8505,-5.05742 -19.146,-5.05742 -10.8373,0 -18.7847,5.59928 -7.7667,5.41866 -11.921,15.35287 -4.1543,9.93421 -4.1543,23.48086 0,13.36603 4.1543,23.48086 4.1543,9.93421 11.921,15.53349 7.9474,5.41866 18.7847,5.41866 10.2955,0 19.146,-5.05741 9.0311,-5.05742 14.6303,-14.99163 5.7799,-9.93421 5.7799,-24.38397 z m -28.7189,0 q 0,6.50239 -2.7093,11.01794 -2.7093,4.51555 -7.2249,6.86364 -4.5155,2.34809 -9.9342,2.34809 -4.6961,0 -9.2117,-2.16747 -4.3349,-2.34808 -7.2249,-6.86363 -2.8899,-4.51555 -2.8899,-11.19857 0,-6.68301 2.8899,-11.19856 2.89,-4.51555 7.2249,-6.68302 4.5156,-2.34808 9.2117,-2.34808 5.4187,0 9.9342,2.34808 4.5156,2.34809 7.2249,6.86364 2.7093,4.51555 2.7093,11.01794 z"
         id="path4752" />
      <path
         d="m 1224.068,168.26466 h -27.4545 v 140.88515 h 27.4545 z m 26.5515,90.31099 v 50.57416 h 27.2739 v -54.54784 q 0,-10.29546 -2.89,-17.33971 -2.8899,-7.04426 -9.2117,-10.6567 -6.1411,-3.61244 -16.4366,-3.61244 -10.2954,0 -16.9785,4.87679 -6.5024,4.69618 -9.7535,12.82417 -3.2512,7.94736 -3.2512,17.88157 h 4.6961 q 0,-4.87679 1.8062,-8.12799 1.8063,-3.43182 5.0575,-5.23804 3.2512,-1.98684 7.5861,-1.98684 6.683,0 9.3923,3.97369 2.7094,3.97368 2.7094,11.37918 z"
         id="path4754" />
      <path
         d="m 1320.3397,283.14024 q 0,-3.07057 1.445,-5.05741 1.445,-2.16747 4.3349,-3.2512 2.89,-1.08373 7.7668,-1.08373 6.3217,0 11.921,1.80622 5.7799,1.6256 10.1148,4.87679 v -12.10167 q -2.1674,-2.34809 -6.5024,-4.51555 -4.3349,-2.16746 -10.476,-3.61244 -5.9606,-1.44498 -13.5467,-1.44498 -15.5335,0 -24.0227,7.04426 -8.4892,6.86364 -8.4892,18.78469 0,8.48923 3.9736,14.44976 4.1543,5.96052 10.8374,9.0311 6.8636,2.88995 14.811,2.88995 7.9473,0 14.811,-2.70933 6.8636,-2.88995 11.1985,-8.30861 4.335,-5.59928 4.335,-13.54665 l -2.89,-10.83732 q 0,5.7799 -2.5287,9.75359 -2.5287,3.97368 -6.5024,5.96052 -3.9737,1.98685 -8.6698,1.98685 -3.2512,0 -5.9606,-1.08374 -2.7093,-1.26435 -4.3349,-3.43181 -1.6256,-2.34809 -1.6256,-5.59929 z m -12.1017,-31.60885 q 1.8062,-1.08373 5.7799,-2.70933 3.9737,-1.80622 9.2118,-3.07057 5.4186,-1.26435 11.0179,-1.26435 3.7931,0 6.683,0.72248 3.0706,0.72249 5.0574,2.34809 1.9869,1.6256 2.89,3.97368 1.0837,2.16747 1.0837,5.23804 v 52.38038 h 26.1902 v -58.52153 q 0,-8.66985 -5.0574,-14.63038 -5.0574,-5.96052 -13.7273,-9.0311 -8.6698,-3.25119 -19.6878,-3.25119 -11.7404,0 -21.6746,3.07057 -9.9342,3.07058 -16.9785,6.50239 z"
         id="path4756" />
      <path
         d="m 1450.5681,258.57565 v 50.57416 h 28.3576 V 255.6857 q 0,-14.99162 -7.0442,-23.30024 -7.0443,-8.30861 -22.5778,-8.30861 -9.2117,0 -15.5335,3.79306 -6.1411,3.79307 -9.7536,10.6567 v -12.46292 h -27.4545 v 83.08612 h 27.4545 v -50.57416 q 0,-4.87679 1.8063,-8.30861 1.8062,-3.43182 5.0574,-5.23804 3.2512,-1.80622 7.5861,-1.80622 6.5024,0 9.2117,3.97369 2.89,3.97368 2.89,11.37918 z"
         id="path4758" />
      <path
         d="m 1490.6663,226.06369 v 22.57775 h 55.6316 v -22.57775 z m 14.6304,-28.89952 v 111.98564 h 26.1902 V 197.16417 Z"
         id="path4760" />
      <path
         d="m 1552.981,267.60675 q 0,13.00479 6.1412,22.75837 6.1411,9.75359 16.9784,15.17225 10.8373,5.41866 24.384,5.41866 13.5466,0 24.2033,-5.41866 10.8374,-5.41866 16.9785,-15.17225 6.3218,-9.75358 6.3218,-22.75837 0,-13.1854 -6.3218,-22.93899 -6.1411,-9.75359 -16.9785,-15.17225 -10.6567,-5.41866 -24.2033,-5.41866 -13.5467,0 -24.384,5.41866 -10.8373,5.41866 -16.9784,15.17225 -6.1412,9.75359 -6.1412,22.93899 z m 27.9964,0 q 0,-6.50239 2.7094,-11.19856 2.7093,-4.69617 7.0442,-7.22488 4.3349,-2.52871 9.7536,-2.52871 5.238,0 9.573,2.52871 4.5155,2.52871 7.0442,7.22488 2.7094,4.69617 2.7094,11.19856 0,6.50239 -2.7094,11.19857 -2.5287,4.51555 -7.0442,7.04425 -4.335,2.52871 -9.573,2.52871 -5.4187,0 -9.7536,-2.52871 -4.3349,-2.5287 -7.0442,-7.04425 -2.7094,-4.69618 -2.7094,-11.19857 z"
         id="path4762" />
      <path
         d="m 1791.0409,255.6857 q 0,-10.11483 -2.5287,-17.15909 -2.5287,-7.04426 -8.3086,-10.6567 -5.5993,-3.79306 -15.3529,-3.79306 -8.4892,0 -15.1722,3.61244 -6.683,3.61244 -11.1986,10.11483 -2.5287,-6.68301 -8.3086,-10.11483 -5.7799,-3.61244 -15.5335,-3.61244 -8.4892,0 -14.6304,3.79306 -5.9605,3.79307 -9.3923,10.47608 v -12.2823 h -26.3708 v 83.08612 h 26.3708 v -50.57416 q 0,-5.05741 1.445,-8.48923 1.6256,-3.43182 4.3349,-5.05742 2.8899,-1.80622 6.5024,-1.80622 5.5993,0 7.9474,3.97369 2.5287,3.79306 2.5287,11.37918 v 50.57416 h 27.4545 v -50.57416 q 0,-5.05741 1.445,-8.48923 1.6256,-3.43182 4.3349,-5.05742 2.89,-1.80622 6.5024,-1.80622 5.5993,0 7.9474,3.97369 2.5287,3.79306 2.5287,11.37918 v 50.57416 h 27.4545 z"
         id="path4764" />
    </g>
  </g>
</svg>
