<?xml version="1.0" encoding="UTF-8" standalone="no"?>
<!-- Created with Inkscape (http://www.inkscape.org/) -->

<svg
   width="1861mm"
   height="512mm"
   viewBox="0 0 1861 512"
   version="1.1"
   id="svg9441"
   inkscape:version="1.2.1 (9c6d41e410, 2022-07-14)"
   sodipodi:docname="cyberptm_logo.svg"
   xmlns:inkscape="http://www.inkscape.org/namespaces/inkscape"
   xmlns:sodipodi="http://sodipodi.sourceforge.net/DTD/sodipodi-0.dtd"
   xmlns="http://www.w3.org/2000/svg"
   xmlns:svg="http://www.w3.org/2000/svg">
  <sodipodi:namedview
     id="namedview9443"
     pagecolor="#ffffff"
     bordercolor="#000000"
     borderopacity="0.25"
     inkscape:showpageshadow="2"
     inkscape:pageopacity="0.0"
     inkscape:pagecheckerboard="0"
     inkscape:deskcolor="#d1d1d1"
     inkscape:document-units="mm"
     showgrid="false"
     inkscape:zoom="0.065670014"
     inkscape:cx="7925.9919"
     inkscape:cy="4629.2056"
     inkscape:window-width="1920"
     inkscape:window-height="1009"
     inkscape:window-x="-8"
     inkscape:window-y="-8"
     inkscape:window-maximized="1"
     inkscape:current-layer="layer1" />
  <defs
     id="defs9438" />
  <g
     inkscape:label="Layer 1"
     inkscape:groupmode="layer"
     id="layer1">
    <circle
       style="opacity:0.994535;fill:#ffffff;fill-opacity:1;stroke:#000000;stroke-width:20.0384;stroke-dasharray:none;stroke-opacity:1"
       id="path5636"
       cx="258.79263"
       cy="257.58801"
       r="196.60963" />
    <path
       id="path5636-4"
       style="opacity:0.994535;stroke:#000000;stroke-width:16.7817"
       inkscape:transform-center-x="-32.613927"
       inkscape:transform-center-y="-30.525973"
       d="m 256.49721,94.305229 c -40.82294,0.33397 -81.59212,15.730511 -113.23346,46.373611 -1.03532,1.59639 21.56101,25.90166 52.88006,58.33384 l 6.29942,-29.44311 H 382.6401 l -25.66355,120.70645 -32.44621,39.09096 c 27.51409,27.61329 47.82369,47.87514 47.82369,47.87514 65.32426,-63.26332 66.9908,-167.51154 3.72783,-232.83547 C 343.46197,110.72372 299.95387,93.965574 256.49721,94.305229 Z M 324.53034,329.36698 C 311.81462,316.60519 298.1758,302.91326 283.10991,287.70476 l -104.0001,-0.34399 -46.65011,60.05984 176.10668,1.17225 z m -41.42043,-41.66222 73.86664,0.23379 -74.09107,-0.48427 c 0.0667,0.0667 0.13359,0.16698 0.23378,0.23379 z m -0.23378,-0.23377 c -29.38769,-29.66722 -60.9659,-61.7581 -86.74167,-88.45028 l -18.77734,87.75995 z" />
    <path
       id="rect4226-2"
       style="fill:#ffffff;fill-opacity:1;fill-rule:evenodd;stroke:#000000;stroke-width:16.6987;stroke-dasharray:none;stroke-opacity:1"
       d="m 208.45141,174.21547 c -2.37789,0 -4.66594,1.87694 -5.12583,4.21141 L 182.73609,282.9099 c -0.46087,2.33448 1.08876,4.21107 3.46899,4.21107 h 165.16438 c 2.3779,0 4.66629,-1.87692 5.12584,-4.21107 l 20.57244,-104.48302 c 0.46089,-2.33447 -1.08875,-4.21141 -3.46899,-4.21141 z m -22.91928,113.23347 c -1.54296,0 -3.58855,0.93179 -4.5908,2.10737 l -44.87238,52.51771 c -1.00192,1.17224 -0.56107,2.12408 0.98522,2.12408 h 167.64981 c 1.54296,0 3.60558,-0.94849 4.60784,-2.12408 l 44.85501,-52.51771 c 1.00192,-1.17225 0.57777,-2.10737 -0.96519,-2.10737 z" />
    <text
       xml:space="preserve"
       style="font-weight:bold;font-size:180.622px;font-family:Jost;-inkscape-font-specification:'Jost Bold';fill:#000000;fill-opacity:1;stroke:#ffffff;stroke-width:0"
       x="564.617"
       y="309.14981"
       id="text290"><tspan
         sodipodi:role="line"
         id="tspan288"
         style="font-size:180.622px;fill:#000000;fill-opacity:1;stroke-width:0"
         x="564.617"
         y="309.14981">Cyberphantom</tspan></text>
  </g>
</svg>
